# xmcd
#
# Track frame offsets:
#	150
#	17625
#	34650
#	54000
#	70200
#	85350
#	100650
#	117000
#	134175
#	144975
#	166125
#	183600
#	200625
#	219975
#	236175
#	251325
#	266625
#	282975
#	300150
#	310950
#
# Disc length: 4431 seconds
#
# Revision: 2
# Processed by: cddbd v1.5.2PL0 Copyright (c) Steve Scherf et al.
# Submitted via: audiograbber 1.83.01
#
DISCID=19114d14
DTITLE=CHM - CHM0006D
DYEAR=1900
DGENRE=Karaoke
TTITLE0=Clay Walker - The Chain Of Love (vocals)
TTITLE1=Rascal Flatts - Praying For Daylight (vocals)
TTITLE2=George Strait and Alan Jackson - Murder On Music Row (vocals)
TTITLE3=Mark Wills - Almost Doesn't Count (vocals)
TTITLE4=Tracy Byrd - Love, You Ain't Seen The Last Of Me (vocals)
TTITLE5=Neal Mccoy - Forever Works For Me (vocals)
TTITLE6=Toby Keith - Country Comes To Town (vocals)
TTITLE7=Steve Wariner - Faith In You (vocals)
TTITLE8=Brad Paisley - Me Neither (vocals)
TTITLE9=Ty Herndon - No Mercy (vocals)
TTITLE10=Clay Walker - The Chain Of Love
TTITLE11=Rascal Flatts - Praying For Daylight
TTITLE12=George Strait and Alan Jackson - Murder On Music Row
TTITLE13=Mark Wills - Almost Doesn't Count
TTITLE14=Tracy Byrd - Love, You Ain't Seen The Last Of Me
TTITLE15=Neal Mccoy - Forever Works For Me
TTITLE16=Toby Keith - Country Comes To Town
TTITLE17=Steve Wariner - Faith In You
TTITLE18=Brad Paisley - Me Niether
TTITLE19=Ty Herndon - No Mercy
EXTD=
EXTT0=
EXTT1=
EXTT2=
EXTT3=
EXTT4=
EXTT5=
EXTT6=
EXTT7=
EXTT8=
EXTT9=
EXTT10=
EXTT11=
EXTT12=
EXTT13=
EXTT14=
EXTT15=
EXTT16=
EXTT17=
EXTT18=
EXTT19=
PLAYORDER=
